<mxfile host="app.diagrams.net" modified="2023-10-19T10:43:15.029Z" agent="Mozilla/5.0 (X11; Linux x86_64) AppleWebKit/537.36 (KHTML, like Gecko) Chrome/118.0.0.0 Safari/537.36 Edg/118.0.2088.46" etag="WYzHdzYRTIr3cfetnE4k" version="22.0.5" type="device">
  <diagram name="Page-1" id="bSMyv144e0k9PvQ0FRKN">
    <mxGraphModel dx="1678" dy="928" grid="1" gridSize="10" guides="1" tooltips="1" connect="1" arrows="1" fold="1" page="1" pageScale="1" pageWidth="1169" pageHeight="827" math="0" shadow="0">
      <root>
        <mxCell id="0" />
        <mxCell id="1" parent="0" />
        <mxCell id="N0WBlQDcbW_fCVqLY_yo-9" style="edgeStyle=orthogonalEdgeStyle;rounded=0;orthogonalLoop=1;jettySize=auto;html=1;exitX=1;exitY=0.5;exitDx=0;exitDy=0;entryX=0;entryY=0.5;entryDx=0;entryDy=0;endArrow=none;endFill=0;" edge="1" parent="1" source="N0WBlQDcbW_fCVqLY_yo-2" target="N0WBlQDcbW_fCVqLY_yo-8">
          <mxGeometry relative="1" as="geometry" />
        </mxCell>
        <mxCell id="N0WBlQDcbW_fCVqLY_yo-2" value="USERS" style="whiteSpace=wrap;html=1;aspect=fixed;" vertex="1" parent="1">
          <mxGeometry x="360" y="376" width="80" height="80" as="geometry" />
        </mxCell>
        <mxCell id="N0WBlQDcbW_fCVqLY_yo-11" style="edgeStyle=orthogonalEdgeStyle;rounded=0;orthogonalLoop=1;jettySize=auto;html=1;exitX=0.5;exitY=0;exitDx=0;exitDy=0;entryX=0.5;entryY=1;entryDx=0;entryDy=0;endArrow=none;endFill=0;" edge="1" parent="1" source="N0WBlQDcbW_fCVqLY_yo-3" target="N0WBlQDcbW_fCVqLY_yo-4">
          <mxGeometry relative="1" as="geometry" />
        </mxCell>
        <mxCell id="N0WBlQDcbW_fCVqLY_yo-12" style="edgeStyle=orthogonalEdgeStyle;rounded=0;orthogonalLoop=1;jettySize=auto;html=1;exitX=1;exitY=0.25;exitDx=0;exitDy=0;entryX=0;entryY=0.5;entryDx=0;entryDy=0;endArrow=none;endFill=0;" edge="1" parent="1" source="N0WBlQDcbW_fCVqLY_yo-3" target="N0WBlQDcbW_fCVqLY_yo-6">
          <mxGeometry relative="1" as="geometry" />
        </mxCell>
        <mxCell id="N0WBlQDcbW_fCVqLY_yo-13" style="edgeStyle=orthogonalEdgeStyle;rounded=0;orthogonalLoop=1;jettySize=auto;html=1;exitX=1;exitY=0.5;exitDx=0;exitDy=0;entryX=0;entryY=0.5;entryDx=0;entryDy=0;endArrow=none;endFill=0;" edge="1" parent="1" source="N0WBlQDcbW_fCVqLY_yo-3" target="N0WBlQDcbW_fCVqLY_yo-7">
          <mxGeometry relative="1" as="geometry" />
        </mxCell>
        <mxCell id="N0WBlQDcbW_fCVqLY_yo-14" style="edgeStyle=orthogonalEdgeStyle;rounded=0;orthogonalLoop=1;jettySize=auto;html=1;exitX=0.5;exitY=1;exitDx=0;exitDy=0;entryX=0.5;entryY=0;entryDx=0;entryDy=0;endArrow=none;endFill=0;" edge="1" parent="1" source="N0WBlQDcbW_fCVqLY_yo-3" target="N0WBlQDcbW_fCVqLY_yo-5">
          <mxGeometry relative="1" as="geometry" />
        </mxCell>
        <mxCell id="N0WBlQDcbW_fCVqLY_yo-3" value="TRIPS" style="whiteSpace=wrap;html=1;aspect=fixed;" vertex="1" parent="1">
          <mxGeometry x="590" y="376" width="80" height="80" as="geometry" />
        </mxCell>
        <mxCell id="N0WBlQDcbW_fCVqLY_yo-4" value="TRIP_POINTS" style="whiteSpace=wrap;html=1;aspect=fixed;" vertex="1" parent="1">
          <mxGeometry x="590" y="256" width="80" height="80" as="geometry" />
        </mxCell>
        <mxCell id="N0WBlQDcbW_fCVqLY_yo-5" value="PHOTOS_&lt;br&gt;FROM_TRIPS" style="whiteSpace=wrap;html=1;aspect=fixed;" vertex="1" parent="1">
          <mxGeometry x="590" y="490" width="80" height="80" as="geometry" />
        </mxCell>
        <mxCell id="N0WBlQDcbW_fCVqLY_yo-6" value="TRIPS&lt;br&gt;_COMMENTS" style="whiteSpace=wrap;html=1;aspect=fixed;" vertex="1" parent="1">
          <mxGeometry x="730" y="306" width="80" height="80" as="geometry" />
        </mxCell>
        <mxCell id="N0WBlQDcbW_fCVqLY_yo-7" value="TRIP_BILLS" style="whiteSpace=wrap;html=1;aspect=fixed;" vertex="1" parent="1">
          <mxGeometry x="730" y="436" width="80" height="80" as="geometry" />
        </mxCell>
        <mxCell id="N0WBlQDcbW_fCVqLY_yo-10" style="edgeStyle=orthogonalEdgeStyle;rounded=0;orthogonalLoop=1;jettySize=auto;html=1;exitX=1;exitY=0.5;exitDx=0;exitDy=0;entryX=0;entryY=0.5;entryDx=0;entryDy=0;endArrow=none;endFill=0;" edge="1" parent="1" source="N0WBlQDcbW_fCVqLY_yo-8" target="N0WBlQDcbW_fCVqLY_yo-3">
          <mxGeometry relative="1" as="geometry" />
        </mxCell>
        <mxCell id="N0WBlQDcbW_fCVqLY_yo-8" value="USER&lt;br&gt;_TRIPS" style="whiteSpace=wrap;html=1;aspect=fixed;" vertex="1" parent="1">
          <mxGeometry x="470" y="376" width="80" height="80" as="geometry" />
        </mxCell>
      </root>
    </mxGraphModel>
  </diagram>
</mxfile>
